[img]http://www.khaolaknews.com/wp-content/uploads/2011/03/f1.jpg[/img]

Formula One 2011 Season

Race 17: Indian Grand Prix, India.

Record Source: BBC One HD
Original Format: MPEG TS Stream
Date: Sunday 30th October 2011
Time: 08:30 to 11:00

India Grand Prix Race HD

Formula 1 Welcomes The Brand New Greater Noida Circuit from India!!

Jake Humphrey, Martin Brundle & David Coulthard present the BBC F1 High
Definition coverage of the Inorgural Grand Prix session for the 17th Race meeting 
of the 2011 Formula One Season, The Indian Grand Prix from the Greater Noida Curcuit

The Race has been split into 2 seperate files. One is the Race only, 
and the other is the 1 hr pre race build up.
You can download both or just download which you want.!


**SPECIAL NOTE** For all my followers of my torrents, I have had many requests
asking if its still possible to continue providing these torrent for 2012 when 
the F1 coverage moves to SKY SPORTS. 

I am pleased to announce that i WILL NOW be continuing to upload the 
Formula 1 for 2012 as I have invested in new Satellite Equipment & Motorised Dish
which will enable me to provide the 12 Races the BBC has agreed in its contract 
to cover for 2012, in Full HD.

For the remaining Races, I will be uploading SKY SPORTS coverage of every
Practice Sessions, Qualifying & Race also in Full HD.. (Im just hoping SKY
keep to their promise and keep the commercials out of their coverage!)

Looking Forward To 2012! 

Enjoy, TheBlackKnight



Complete name                    : F1 2011 Race 17 India Race Build Up HD 1080 H264 AC3                      
Format                           : Matroska
Format version                   : Version 2
File size                        : 1.22 GiB
Duration                         : 55mn 13s
Overall bit rate                 : 3 158 Kbps
Writing application              : HandBrake 0.9.5
Writing library                  : libmkv 0.6.4.1

Video
ID                               : 1
Format                           : AVC
Format/Info                      : Advanced Video Codec
Format profile                   : Main@L4.0
Format settings, CABAC           : Yes
Format settings, ReFrames        : 4 frames
Codec ID                         : V_MPEG4/ISO/AVC
Duration                         : 55mn 13s
Bit rate                         : 3 000 Kbps
Width                            : 1 440 pixels
Height                           : 1 080 pixels
Display aspect ratio             : 16:9
Frame rate mode                  : Variable
Frame rate                       : 25.000 fps
Color space                      : YUV
Chroma subsampling               : 4:2:0
Bit depth                        : 8 bits
Scan type                        : Progressive
Bits/(Pixel*Frame)               : 0.077
Stream size                      : 1.14 GiB (94%)
Writing library                  : x264 core 112
Language                         : English
Color primaries                  : BT.709-5, BT.1361, IEC 61966-2-4, SMPTE RP177
Transfer characteristics         : BT.709-5, BT.1361
Matrix coefficients              : BT.709-5, BT.1361, IEC 61966-2-4 709, SMPTE RP177

Audio
ID                               : 2
Format                           : AC-3
Format/Info                      : Audio Coding 3
Mode extension                   : CM (complete main)
Codec ID                         : A_AC3
Duration                         : 55mn 13s
Bit rate mode                    : Constant
Bit rate                         : 128 Kbps
Channel(s)                       : 2 channels
Channel positions                : Front: L R
Sampling rate                    : 48.0 KHz
Bit depth                        : 16 bits
Compression mode                 : Lossy
Stream size                      : 50.6 MiB (4%)
Language                         : English



Complete name                    : F1 2011 Race 17 India Race HD 1080 H264 AC3 
Format                           : Matroska
Format version                   : Version 2
File size                        : 3.04 GiB
Duration                         : 2h 19mn
Overall bit rate                 : 3 131 Kbps
Writing application              : HandBrake 0.9.5
Writing library                  : libmkv 0.6.4.1

Video
ID                               : 1
Format                           : AVC
Format/Info                      : Advanced Video Codec
Format profile                   : Main@L4.0
Format settings, CABAC           : Yes
Format settings, ReFrames        : 4 frames
Codec ID                         : V_MPEG4/ISO/AVC
Duration                         : 2h 19mn
Bit rate                         : 3 000 Kbps
Width                            : 1 438 pixels
Height                           : 1 078 pixels
Display aspect ratio             : 16:9
Original display aspect ratio    : 16:9
Frame rate mode                  : Variable
Frame rate                       : 25.000 fps
Color space                      : YUV
Chroma subsampling               : 4:2:0
Bit depth                        : 8 bits
Scan type                        : Progressive
Bits/(Pixel*Frame)               : 0.077
Stream size                      : 2.86 GiB (94%)
Writing library                  : x264 core 112
Language                         : English
Color primaries                  : BT.709-5, BT.1361, IEC 61966-2-4, SMPTE RP177
Transfer characteristics         : BT.709-5, BT.1361
Matrix coefficients              : BT.709-5, BT.1361, IEC 61966-2-4 709, SMPTE RP177

Audio
ID                               : 2
Format                           : AC-3
Format/Info                      : Audio Coding 3
Mode extension                   : CM (complete main)
Codec ID                         : A_AC3
Duration                         : 2h 19mn
Bit rate mode                    : Constant
Bit rate                         : 128 Kbps
Channel(s)                       : 2 channels
Channel positions                : Front: L R
Sampling rate                    : 48.0 KHz
Bit depth                        : 16 bits
Compression mode                 : Lossy
Stream size                      : 127 MiB (4%)
Language                         : English
